<?xml version="1.0" encoding="UTF-8"?>
<svg width="400" height="300" viewBox="0 0 400 300" fill="none" xmlns="http://www.w3.org/2000/svg">
  <!-- Background Elements -->
  <rect width="400" height="300" rx="20" fill="#F8FAFC" />
  <circle cx="40" cy="60" r="25" fill="#EC4899" fill-opacity="0.1" />
  <circle cx="360" cy="240" r="30" fill="#10B981" fill-opacity="0.1" />
  
  <!-- Document with Annotations -->
  <rect x="70" y="60" width="260" height="180" rx="8" fill="white" stroke="#E2E8F0" stroke-width="2" />
  
  <!-- Text Lines -->
  <line x1="90" y1="85" x2="310" y2="85" stroke="#E2E8F0" stroke-width="2" stroke-linecap="round" />
  <line x1="90" y1="105" x2="310" y2="105" stroke="#E2E8F0" stroke-width="2" stroke-linecap="round" />
  <line x1="90" y1="125" x2="310" y2="125" stroke="#E2E8F0" stroke-width="2" stroke-linecap="round" />
  <line x1="90" y1="145" x2="310" y2="145" stroke="#E2E8F0" stroke-width="2" stroke-linecap="round" />
  <line x1="90" y1="165" x2="310" y2="165" stroke="#E2E8F0" stroke-width="2" stroke-linecap="round" />
  <line x1="90" y1="185" x2="310" y2="185" stroke="#E2E8F0" stroke-width="2" stroke-linecap="round" />
  <line x1="90" y1="205" x2="200" y2="205" stroke="#E2E8F0" stroke-width="2" stroke-linecap="round" />
  
  <!-- Highlighted Text with Labels -->
  <rect x="120" y="80" width="60" height="15" rx="2" fill="#6366F1" fill-opacity="0.2" stroke="#6366F1" stroke-width="1" />
  <text x="150" y="75" font-family="'Space Grotesk', sans-serif" font-size="10" font-weight="500" fill="#6366F1" text-anchor="middle">Person</text>
  
  <rect x="200" y="100" width="80" height="15" rx="2" fill="#EC4899" fill-opacity="0.2" stroke="#EC4899" stroke-width="1" />
  <text x="240" y="95" font-family="'Space Grotesk', sans-serif" font-size="10" font-weight="500" fill="#EC4899" text-anchor="middle">Organization</text>
  
  <rect x="150" y="140" width="70" height="15" rx="2" fill="#10B981" fill-opacity="0.2" stroke="#10B981" stroke-width="1" />
  <text x="185" y="135" font-family="'Space Grotesk', sans-serif" font-size="10" font-weight="500" fill="#10B981" text-anchor="middle">Location</text>
  
  <!-- AI Assistant Popup -->
  <rect x="240" y="160" width="120" height="80" rx="8" fill="#6366F1" filter="drop-shadow(0px 4px 6px rgba(0, 0, 0, 0.1))" />
  <path d="M240 180L230 190L240 200" fill="#6366F1" />
  
  <text x="300" y="180" font-family="'Space Grotesk', sans-serif" font-size="12" font-weight="600" fill="white" text-anchor="middle">AI Suggestion</text>
  <rect x="250" y="190" width="100" height="15" rx="2" fill="white" fill-opacity="0.2" />
  <rect x="250" y="215" width="60" height="15" rx="2" fill="white" fill-opacity="0.2" />
  
  <!-- Robot Icon -->
  <circle cx="340" cy="120" r="20" fill="#6366F1" fill-opacity="0.2" />
  <circle cx="340" cy="110" r="5" fill="#6366F1" />
  <circle cx="330" cy="110" r="2" fill="#6366F1" />
  <circle cx="350" cy="110" r="2" fill="#6366F1" />
  <path d="M330 120C330 120 335 125 340 125C345 125 350 120 350 120" stroke="#6366F1" stroke-width="2" stroke-linecap="round" />
  
  <!-- Text Label -->
  <text x="200" y="260" font-family="'Space Grotesk', sans-serif" font-size="14" font-weight="500" fill="#1E293B" text-anchor="middle">Annotate with AI Assistance</text>
</svg>
